<svg width="178" height="15" viewBox="0 0 178 15" fill="none" xmlns="http://www.w3.org/2000/svg">
<path d="M18.846 11V10.718C19.802 9.962 20.622 9.298 21.306 8.726C21.99 8.15 22.56 7.642 23.016 7.202C23.472 6.762 23.832 6.368 24.096 6.02C24.364 5.672 24.554 5.35 24.666 5.054C24.778 4.754 24.834 4.456 24.834 4.16C24.834 3.676 24.718 3.238 24.486 2.846C24.254 2.454 23.944 2.142 23.556 1.91C23.168 1.678 22.736 1.562 22.26 1.562C21.788 1.562 21.356 1.678 20.964 1.91C20.576 2.142 20.262 2.458 20.022 2.858C19.782 3.254 19.65 3.702 19.626 4.202L19.002 4.052C19.026 3.612 19.126 3.202 19.302 2.822C19.478 2.442 19.714 2.11 20.01 1.826C20.306 1.542 20.648 1.32 21.036 1.16C21.424 1 21.84 0.92 22.284 0.92C22.888 0.92 23.436 1.062 23.928 1.346C24.42 1.63 24.812 2.016 25.104 2.504C25.4 2.992 25.548 3.546 25.548 4.166C25.548 4.486 25.498 4.8 25.398 5.108C25.302 5.416 25.136 5.742 24.9 6.086C24.664 6.426 24.346 6.8 23.946 7.208C23.546 7.616 23.044 8.078 22.44 8.594C21.84 9.106 21.12 9.694 20.28 10.358H25.728V11H18.846ZM31.8608 11.192C31.0568 11.192 30.3528 10.978 29.7487 10.55C29.1447 10.122 28.6748 9.522 28.3388 8.75C28.0028 7.978 27.8348 7.08 27.8348 6.056C27.8348 5.028 28.0028 4.13 28.3388 3.362C28.6748 2.59 29.1447 1.99 29.7487 1.562C30.3528 1.134 31.0568 0.92 31.8608 0.92C32.6688 0.92 33.3748 1.134 33.9788 1.562C34.5828 1.99 35.0528 2.59 35.3888 3.362C35.7248 4.13 35.8928 5.028 35.8928 6.056C35.8928 7.08 35.7248 7.978 35.3888 8.75C35.0528 9.522 34.5828 10.122 33.9788 10.55C33.3748 10.978 32.6688 11.192 31.8608 11.192ZM31.8608 10.592C32.5288 10.592 33.1128 10.404 33.6128 10.028C34.1128 9.652 34.5008 9.124 34.7768 8.444C35.0568 7.76 35.1968 6.964 35.1968 6.056C35.1968 5.144 35.0568 4.348 34.7768 3.668C34.5008 2.988 34.1128 2.46 33.6128 2.084C33.1128 1.708 32.5288 1.52 31.8608 1.52C31.1968 1.52 30.6148 1.708 30.1148 2.084C29.6148 2.46 29.2248 2.988 28.9448 3.668C28.6688 4.348 28.5308 5.144 28.5308 6.056C28.5308 6.964 28.6688 7.76 28.9448 8.444C29.2248 9.124 29.6148 9.652 30.1148 10.028C30.6148 10.404 31.1968 10.592 31.8608 10.592ZM37.8538 11V10.718C38.8098 9.962 39.6298 9.298 40.3138 8.726C40.9978 8.15 41.5678 7.642 42.0238 7.202C42.4798 6.762 42.8398 6.368 43.1038 6.02C43.3718 5.672 43.5618 5.35 43.6738 5.054C43.7858 4.754 43.8418 4.456 43.8418 4.16C43.8418 3.676 43.7258 3.238 43.4938 2.846C43.2618 2.454 42.9518 2.142 42.5638 1.91C42.1758 1.678 41.7438 1.562 41.2678 1.562C40.7958 1.562 40.3638 1.678 39.9718 1.91C39.5838 2.142 39.2698 2.458 39.0298 2.858C38.7898 3.254 38.6578 3.702 38.6338 4.202L38.0098 4.052C38.0338 3.612 38.1338 3.202 38.3098 2.822C38.4858 2.442 38.7218 2.11 39.0178 1.826C39.3138 1.542 39.6558 1.32 40.0438 1.16C40.4318 1 40.8478 0.92 41.2918 0.92C41.8958 0.92 42.4438 1.062 42.9358 1.346C43.4278 1.63 43.8198 2.016 44.1118 2.504C44.4078 2.992 44.5558 3.546 44.5558 4.166C44.5558 4.486 44.5058 4.8 44.4058 5.108C44.3098 5.416 44.1438 5.742 43.9078 6.086C43.6718 6.426 43.3538 6.8 42.9538 7.208C42.5538 7.616 42.0518 8.078 41.4478 8.594C40.8478 9.106 40.1278 9.694 39.2878 10.358H44.7358V11H37.8538ZM51.1386 11V9.074H46.1646V8.714L51.1206 1.1H51.7686V8.492H52.9206V9.074H51.7686V11H51.1386ZM46.9926 8.492H51.1386V2.036L46.9926 8.492ZM55.9922 11.192C55.9082 11.192 55.8302 11.17 55.7582 11.126C55.6862 11.086 55.6282 11.03 55.5842 10.958C55.5442 10.886 55.5242 10.806 55.5242 10.718C55.5242 10.634 55.5442 10.558 55.5842 10.49C55.6282 10.418 55.6862 10.36 55.7582 10.316C55.8302 10.272 55.9082 10.25 55.9922 10.25C56.0802 10.25 56.1582 10.272 56.2262 10.316C56.2982 10.36 56.3542 10.418 56.3942 10.49C56.4382 10.558 56.4602 10.634 56.4602 10.718C56.4602 10.806 56.4382 10.886 56.3942 10.958C56.3542 11.03 56.2982 11.086 56.2262 11.126C56.1582 11.17 56.0802 11.192 55.9922 11.192ZM62.5731 11V1.1H64.4811C65.4451 1.1 66.1931 1.316 66.7251 1.748C67.2611 2.18 67.5291 2.798 67.5291 3.602C67.5291 4.71 67.0411 5.46 66.0651 5.852C66.8131 5.952 67.3891 6.222 67.7931 6.662C68.2011 7.098 68.4051 7.67 68.4051 8.378C68.4051 8.926 68.2811 9.396 68.0331 9.788C67.7891 10.18 67.4371 10.48 66.9771 10.688C66.5211 10.896 65.9711 11 65.3271 11H62.5731ZM63.2271 5.66H64.3911C65.1991 5.66 65.8191 5.486 66.2511 5.138C66.6871 4.79 66.9051 4.296 66.9051 3.656C66.9051 3.004 66.6871 2.504 66.2511 2.156C65.8151 1.808 65.1951 1.634 64.3911 1.634H63.2271V5.66ZM63.2271 10.448H65.1951C66.0071 10.448 66.6351 10.268 67.0791 9.908C67.5271 9.544 67.7511 9.03 67.7511 8.366C67.7511 7.698 67.5251 7.178 67.0731 6.806C66.6251 6.434 65.9991 6.248 65.1951 6.248H63.2271V10.448ZM73.0014 11.192C72.4214 11.192 71.8994 11.052 71.4354 10.772C70.9754 10.488 70.6094 10.1 70.3374 9.608C70.0694 9.116 69.9354 8.556 69.9354 7.928C69.9354 7.296 70.0694 6.736 70.3374 6.248C70.6054 5.756 70.9694 5.37 71.4294 5.09C71.8934 4.806 72.4174 4.664 73.0014 4.664C73.5854 4.664 74.1134 4.806 74.5854 5.09C75.0574 5.374 75.4094 5.766 75.6414 6.266V4.856H76.2774V11H75.6414V9.578C75.3814 10.082 75.0194 10.478 74.5554 10.766C74.0954 11.05 73.5774 11.192 73.0014 11.192ZM73.1334 10.628C73.6294 10.628 74.0674 10.514 74.4474 10.286C74.8314 10.054 75.1314 9.734 75.3474 9.326C75.5674 8.918 75.6774 8.452 75.6774 7.928C75.6774 7.4 75.5674 6.934 75.3474 6.53C75.1314 6.122 74.8314 5.804 74.4474 5.576C74.0674 5.344 73.6294 5.228 73.1334 5.228C72.6374 5.228 72.1974 5.344 71.8134 5.576C71.4334 5.804 71.1334 6.122 70.9134 6.53C70.6934 6.934 70.5834 7.4 70.5834 7.928C70.5834 8.452 70.6934 8.918 70.9134 9.326C71.1334 9.73 71.4334 10.048 71.8134 10.28C72.1974 10.512 72.6374 10.628 73.1334 10.628ZM82.245 11.192C81.673 11.192 81.153 11.05 80.685 10.766C80.221 10.478 79.861 10.082 79.605 9.578V11H78.969V0.68H79.605V6.266C79.857 5.766 80.215 5.374 80.679 5.09C81.143 4.806 81.663 4.664 82.239 4.664C82.823 4.664 83.347 4.806 83.811 5.09C84.275 5.37 84.641 5.756 84.909 6.248C85.177 6.736 85.311 7.296 85.311 7.928C85.311 8.556 85.175 9.116 84.903 9.608C84.635 10.1 84.269 10.488 83.805 10.772C83.345 11.052 82.825 11.192 82.245 11.192ZM82.119 10.628C82.611 10.628 83.049 10.512 83.433 10.28C83.817 10.048 84.117 9.73 84.333 9.326C84.553 8.918 84.663 8.452 84.663 7.928C84.663 7.404 84.553 6.938 84.333 6.53C84.117 6.122 83.817 5.804 83.433 5.576C83.053 5.344 82.615 5.228 82.119 5.228C81.623 5.228 81.183 5.344 80.799 5.576C80.415 5.804 80.113 6.122 79.893 6.53C79.677 6.938 79.569 7.404 79.569 7.928C79.569 8.452 79.677 8.918 79.893 9.326C80.113 9.734 80.415 10.054 80.799 10.286C81.183 10.514 81.623 10.628 82.119 10.628ZM90.2046 11.192C89.6246 11.192 89.1026 11.052 88.6386 10.772C88.1786 10.488 87.8126 10.1 87.5406 9.608C87.2726 9.116 87.1386 8.556 87.1386 7.928C87.1386 7.296 87.2726 6.736 87.5406 6.248C87.8086 5.756 88.1726 5.37 88.6326 5.09C89.0966 4.806 89.6206 4.664 90.2046 4.664C90.7886 4.664 91.3166 4.806 91.7886 5.09C92.2606 5.374 92.6126 5.766 92.8446 6.266V4.856H93.4806V11H92.8446V9.578C92.5846 10.082 92.2226 10.478 91.7586 10.766C91.2986 11.05 90.7806 11.192 90.2046 11.192ZM90.3366 10.628C90.8326 10.628 91.2706 10.514 91.6506 10.286C92.0346 10.054 92.3346 9.734 92.5506 9.326C92.7706 8.918 92.8806 8.452 92.8806 7.928C92.8806 7.4 92.7706 6.934 92.5506 6.53C92.3346 6.122 92.0346 5.804 91.6506 5.576C91.2706 5.344 90.8326 5.228 90.3366 5.228C89.8406 5.228 89.4006 5.344 89.0166 5.576C88.6366 5.804 88.3366 6.122 88.1166 6.53C87.8966 6.934 87.7866 7.4 87.7866 7.928C87.7866 8.452 87.8966 8.918 88.1166 9.326C88.3366 9.73 88.6366 10.048 89.0166 10.28C89.4006 10.512 89.8406 10.628 90.3366 10.628ZM99.0221 11.192C98.5621 11.192 98.1301 11.112 97.7261 10.952C97.3261 10.788 96.9761 10.56 96.6761 10.268C96.3761 9.976 96.1401 9.632 95.9681 9.236C95.8001 8.836 95.7161 8.4 95.7161 7.928C95.7161 7.456 95.8001 7.022 95.9681 6.626C96.1361 6.23 96.3701 5.886 96.6701 5.594C96.9701 5.298 97.3201 5.07 97.7201 4.91C98.1201 4.746 98.5541 4.664 99.0221 4.664C99.4261 4.664 99.8101 4.726 100.174 4.85C100.538 4.974 100.856 5.144 101.128 5.36L100.84 5.792C100.352 5.408 99.7641 5.216 99.0761 5.216C98.5441 5.216 98.0721 5.334 97.6601 5.57C97.2521 5.806 96.9321 6.13 96.7001 6.542C96.4681 6.95 96.3521 7.412 96.3521 7.928C96.3521 8.444 96.4681 8.908 96.7001 9.32C96.9321 9.728 97.2541 10.05 97.6661 10.286C98.0781 10.522 98.5521 10.64 99.0881 10.64C99.4201 10.64 99.7341 10.592 100.03 10.496C100.33 10.396 100.596 10.252 100.828 10.064L101.128 10.496C100.852 10.712 100.534 10.882 100.174 11.006C99.8141 11.13 99.4301 11.192 99.0221 11.192ZM105.72 11.192C105.14 11.192 104.618 11.052 104.154 10.772C103.694 10.488 103.328 10.1 103.056 9.608C102.788 9.116 102.654 8.556 102.654 7.928C102.654 7.296 102.788 6.736 103.056 6.248C103.324 5.756 103.688 5.37 104.148 5.09C104.612 4.806 105.136 4.664 105.72 4.664C106.304 4.664 106.832 4.806 107.304 5.09C107.776 5.374 108.128 5.766 108.36 6.266V4.856H108.996V11H108.36V9.578C108.1 10.082 107.738 10.478 107.274 10.766C106.814 11.05 106.296 11.192 105.72 11.192ZM105.852 10.628C106.348 10.628 106.786 10.514 107.166 10.286C107.55 10.054 107.85 9.734 108.066 9.326C108.286 8.918 108.396 8.452 108.396 7.928C108.396 7.4 108.286 6.934 108.066 6.53C107.85 6.122 107.55 5.804 107.166 5.576C106.786 5.344 106.348 5.228 105.852 5.228C105.356 5.228 104.916 5.344 104.532 5.576C104.152 5.804 103.852 6.122 103.632 6.53C103.412 6.934 103.302 7.4 103.302 7.928C103.302 8.452 103.412 8.918 103.632 9.326C103.852 9.73 104.152 10.048 104.532 10.28C104.916 10.512 105.356 10.628 105.852 10.628ZM111.688 11V4.856H112.324V5.774C112.508 5.406 112.752 5.13 113.056 4.946C113.36 4.758 113.72 4.664 114.136 4.664C114.312 4.664 114.486 4.682 114.658 4.718C114.834 4.75 114.986 4.794 115.114 4.85L114.856 5.39C114.74 5.334 114.608 5.292 114.46 5.264C114.316 5.236 114.174 5.222 114.034 5.222C113.746 5.222 113.47 5.298 113.206 5.45C112.946 5.598 112.734 5.792 112.57 6.032C112.406 6.268 112.324 6.52 112.324 6.788V11H111.688ZM120.262 11V1.1H120.916L126.496 9.866V1.1H127.15V11H126.496L120.916 2.246V11H120.262ZM132.814 14.3C132.05 14.3 131.404 14.146 130.876 13.838C130.348 13.534 129.952 13.092 129.688 12.512L130.24 12.272C130.436 12.724 130.764 13.086 131.224 13.358C131.688 13.63 132.22 13.766 132.82 13.766C133.316 13.766 133.762 13.666 134.158 13.466C134.558 13.27 134.872 12.984 135.1 12.608C135.332 12.232 135.448 11.776 135.448 11.24V9.578C135.192 10.082 134.83 10.478 134.362 10.766C133.898 11.05 133.38 11.192 132.808 11.192C132.228 11.192 131.706 11.052 131.242 10.772C130.782 10.488 130.416 10.1 130.144 9.608C129.876 9.116 129.742 8.556 129.742 7.928C129.742 7.296 129.876 6.736 130.144 6.248C130.412 5.756 130.778 5.37 131.242 5.09C131.706 4.806 132.23 4.664 132.814 4.664C133.39 4.664 133.91 4.806 134.374 5.09C134.838 5.374 135.196 5.766 135.448 6.266V4.856H136.084V11.168C136.084 11.864 135.948 12.444 135.676 12.908C135.404 13.372 135.022 13.72 134.53 13.952C134.042 14.184 133.47 14.3 132.814 14.3ZM132.934 10.628C133.43 10.628 133.87 10.514 134.254 10.286C134.638 10.054 134.938 9.734 135.154 9.326C135.374 8.918 135.484 8.452 135.484 7.928C135.484 7.404 135.374 6.938 135.154 6.53C134.938 6.122 134.638 5.804 134.254 5.576C133.87 5.344 133.43 5.228 132.934 5.228C132.442 5.228 132.004 5.344 131.62 5.576C131.236 5.804 130.934 6.122 130.714 6.53C130.498 6.938 130.39 7.404 130.39 7.928C130.39 8.452 130.498 8.918 130.714 9.326C130.934 9.73 131.236 10.048 131.62 10.28C132.004 10.512 132.442 10.628 132.934 10.628ZM141.122 11.192C140.234 11.192 139.602 10.986 139.226 10.574C138.85 10.158 138.662 9.462 138.662 8.486V4.856H139.298V8.396C139.298 9.204 139.438 9.782 139.718 10.13C139.998 10.474 140.466 10.646 141.122 10.646C141.778 10.646 142.244 10.474 142.52 10.13C142.8 9.782 142.94 9.204 142.94 8.396V4.856H143.576V8.486C143.576 9.462 143.388 10.158 143.012 10.574C142.64 10.986 142.01 11.192 141.122 11.192ZM146.158 11V4.856H146.794V11H146.158ZM146.476 3.638C146.396 3.638 146.322 3.618 146.254 3.578C146.186 3.538 146.132 3.484 146.092 3.416C146.052 3.348 146.032 3.274 146.032 3.194C146.032 3.11 146.052 3.036 146.092 2.972C146.132 2.904 146.186 2.85 146.254 2.81C146.322 2.77 146.396 2.75 146.476 2.75C146.56 2.75 146.634 2.77 146.698 2.81C146.766 2.85 146.82 2.904 146.86 2.972C146.9 3.036 146.92 3.108 146.92 3.188C146.92 3.272 146.9 3.348 146.86 3.416C146.82 3.484 146.766 3.538 146.698 3.578C146.634 3.618 146.56 3.638 146.476 3.638ZM149.492 11V4.856H150.128V5.774C150.312 5.406 150.556 5.13 150.86 4.946C151.164 4.758 151.524 4.664 151.94 4.664C152.116 4.664 152.29 4.682 152.462 4.718C152.638 4.75 152.79 4.794 152.918 4.85L152.66 5.39C152.544 5.334 152.412 5.292 152.264 5.264C152.12 5.236 151.978 5.222 151.838 5.222C151.55 5.222 151.274 5.298 151.01 5.45C150.75 5.598 150.538 5.792 150.374 6.032C150.21 6.268 150.128 6.52 150.128 6.788V11H149.492ZM157.224 11.192C156.644 11.192 156.122 11.052 155.658 10.772C155.198 10.488 154.832 10.1 154.56 9.608C154.292 9.116 154.158 8.556 154.158 7.928C154.158 7.296 154.292 6.736 154.56 6.248C154.828 5.756 155.192 5.37 155.652 5.09C156.116 4.806 156.64 4.664 157.224 4.664C157.808 4.664 158.336 4.806 158.808 5.09C159.28 5.374 159.632 5.766 159.864 6.266V4.856H160.5V11H159.864V9.578C159.604 10.082 159.242 10.478 158.778 10.766C158.318 11.05 157.8 11.192 157.224 11.192ZM157.356 10.628C157.852 10.628 158.29 10.514 158.67 10.286C159.054 10.054 159.354 9.734 159.57 9.326C159.79 8.918 159.9 8.452 159.9 7.928C159.9 7.4 159.79 6.934 159.57 6.53C159.354 6.122 159.054 5.804 158.67 5.576C158.29 5.344 157.852 5.228 157.356 5.228C156.86 5.228 156.42 5.344 156.036 5.576C155.656 5.804 155.356 6.122 155.136 6.53C154.916 6.934 154.806 7.4 154.806 7.928C154.806 8.452 154.916 8.918 155.136 9.326C155.356 9.73 155.656 10.048 156.036 10.28C156.42 10.512 156.86 10.628 157.356 10.628ZM163.192 11V4.856H163.828V5.732C163.98 5.44 164.23 5.19 164.578 4.982C164.93 4.77 165.37 4.664 165.898 4.664C166.374 4.664 166.782 4.762 167.122 4.958C167.462 5.15 167.722 5.434 167.902 5.81C168.082 6.182 168.172 6.638 168.172 7.178V11H167.536V7.292C167.536 6.612 167.378 6.094 167.062 5.738C166.75 5.378 166.308 5.198 165.736 5.198C165.336 5.198 164.994 5.278 164.71 5.438C164.426 5.598 164.208 5.808 164.056 6.068C163.904 6.328 163.828 6.606 163.828 6.902V11H163.192ZM173.612 11.192C172.968 11.192 172.396 11.05 171.896 10.766C171.396 10.478 171.004 10.092 170.72 9.608C170.436 9.12 170.294 8.572 170.294 7.964C170.294 7.5 170.376 7.068 170.54 6.668C170.708 6.268 170.938 5.918 171.23 5.618C171.526 5.318 171.866 5.084 172.25 4.916C172.638 4.748 173.05 4.664 173.486 4.664C174.066 4.664 174.59 4.798 175.058 5.066C175.53 5.33 175.908 5.696 176.192 6.164C176.48 6.632 176.638 7.166 176.666 7.766C176.666 7.806 176.666 7.842 176.666 7.874C176.666 7.902 176.664 7.936 176.66 7.976H170.918C170.918 8.492 171.034 8.952 171.266 9.356C171.498 9.76 171.818 10.078 172.226 10.31C172.638 10.538 173.106 10.652 173.63 10.652C174.13 10.652 174.58 10.546 174.98 10.334C175.384 10.122 175.71 9.822 175.958 9.434L176.438 9.704C176.146 10.176 175.752 10.542 175.256 10.802C174.764 11.062 174.216 11.192 173.612 11.192ZM170.948 7.472H176.03C175.978 7.036 175.834 6.648 175.598 6.308C175.362 5.968 175.062 5.7 174.698 5.504C174.334 5.304 173.934 5.204 173.498 5.204C173.054 5.204 172.648 5.302 172.28 5.498C171.916 5.694 171.616 5.964 171.38 6.308C171.144 6.648 171 7.036 170.948 7.472Z" fill="white"/>
<path d="M6.495 10.16C6.11167 10.16 5.75167 10.0933 5.415 9.96C5.08167 9.82333 4.79 9.63333 4.54 9.39C4.29 9.14667 4.09333 8.86 3.95 8.53C3.81 8.19667 3.74 7.83333 3.74 7.44C3.74 7.04667 3.81 6.685 3.95 6.355C4.09 6.025 4.285 5.73833 4.535 5.495C4.785 5.24833 5.07667 5.05833 5.41 4.925C5.74333 4.78833 6.105 4.72 6.495 4.72C6.83167 4.72 7.15167 4.77167 7.455 4.875C7.75833 4.97833 8.02333 5.12 8.25 5.3L8.01 5.66C7.60333 5.34 7.11333 5.18 6.54 5.18C6.09667 5.18 5.70333 5.27833 5.36 5.475C5.02 5.67167 4.75333 5.94167 4.56 6.285C4.36667 6.625 4.27 7.01 4.27 7.44C4.27 7.87 4.36667 8.25667 4.56 8.6C4.75333 8.94 5.02167 9.20833 5.365 9.405C5.70833 9.60167 6.10333 9.7 6.55 9.7C6.82667 9.7 7.08833 9.66 7.335 9.58C7.585 9.49667 7.80667 9.37667 8 9.22L8.25 9.58C8.02 9.76 7.755 9.90167 7.455 10.005C7.155 10.1083 6.835 10.16 6.495 10.16Z" fill="white"/>
<circle cx="6.5" cy="7.5" r="6" stroke="white"/>
</svg>
